<mxfile host="65bd71144e">
    <diagram id="_F6PZg_mLkYSf84MyJhu" name="Page-1">
        <mxGraphModel dx="647" dy="445" grid="1" gridSize="10" guides="1" tooltips="1" connect="1" arrows="1" fold="1" page="1" pageScale="1" pageWidth="850" pageHeight="1100" math="0" shadow="0">
            <root>
                <mxCell id="0"/>
                <mxCell id="1" parent="0"/>
                <mxCell id="48" value="" style="edgeStyle=none;html=1;entryX=0.5;entryY=0;entryDx=0;entryDy=0;" edge="1" parent="1" source="3" target="47">
                    <mxGeometry relative="1" as="geometry"/>
                </mxCell>
                <mxCell id="3" value="Injecten Skript" style="rounded=1;whiteSpace=wrap;html=1;fontSize=19;strokeColor=#333333;" vertex="1" parent="1">
                    <mxGeometry x="70" y="110" width="140" height="30" as="geometry"/>
                </mxCell>
                <mxCell id="4" style="edgeStyle=none;html=1;entryX=0.5;entryY=0;entryDx=0;entryDy=0;startArrow=none;exitX=0.5;exitY=1;exitDx=0;exitDy=0;" edge="1" parent="1" source="5" target="3">
                    <mxGeometry relative="1" as="geometry">
                        <mxPoint x="140" y="130" as="sourcePoint"/>
                    </mxGeometry>
                </mxCell>
                <mxCell id="5" value="" style="ellipse;whiteSpace=wrap;html=1;aspect=fixed;strokeColor=none;fillColor=#000000;" vertex="1" parent="1">
                    <mxGeometry x="125" y="50" width="30" height="30" as="geometry"/>
                </mxCell>
                <mxCell id="22" value="" style="endArrow=none;html=1;rounded=0;fontColor=#333333;strokeWidth=2;strokeColor=#333333;" edge="1" parent="1">
                    <mxGeometry width="50" height="50" relative="1" as="geometry">
                        <mxPoint x="250" y="560" as="sourcePoint"/>
                        <mxPoint x="250" y="10" as="targetPoint"/>
                    </mxGeometry>
                </mxCell>
                <mxCell id="34" value="Playwright" style="text;html=1;strokeColor=none;fillColor=none;align=center;verticalAlign=middle;whiteSpace=wrap;rounded=0;fontColor=#000000;fontSize=22;" vertex="1" parent="1">
                    <mxGeometry x="50" y="10" width="180" height="30" as="geometry"/>
                </mxCell>
                <mxCell id="35" value="Browser / Window" style="text;html=1;strokeColor=none;fillColor=none;align=center;verticalAlign=middle;whiteSpace=wrap;rounded=0;fontColor=#000000;fontSize=22;" vertex="1" parent="1">
                    <mxGeometry x="268.75" y="10" width="182.5" height="30" as="geometry"/>
                </mxCell>
                <mxCell id="60" style="edgeStyle=orthogonalEdgeStyle;rounded=0;html=1;entryX=0.5;entryY=0;entryDx=0;entryDy=0;" edge="1" parent="1" source="40" target="58">
                    <mxGeometry relative="1" as="geometry"/>
                </mxCell>
                <mxCell id="40" value="&lt;u style=&quot;font-size: 18px;&quot;&gt;loadTimes&lt;/u&gt;&lt;br style=&quot;font-size: 18px;&quot;&gt;[gefÃ¼llt]" style="rounded=0;whiteSpace=wrap;html=1;strokeColor=#333333;fillColor=#E6E6E6;fontColor=#333333;fontSize=18;" vertex="1" parent="1">
                    <mxGeometry x="307.5" y="401" width="105" height="50" as="geometry"/>
                </mxCell>
                <mxCell id="46" value="" style="group" vertex="1" connectable="0" parent="1">
                    <mxGeometry x="66.5" y="291" width="144" height="30" as="geometry"/>
                </mxCell>
                <mxCell id="43" value="Warten 10 s" style="rounded=1;whiteSpace=wrap;html=1;fontSize=18;align=right;spacingRight=5;strokeColor=#333333;" vertex="1" parent="46">
                    <mxGeometry width="144" height="30" as="geometry"/>
                </mxCell>
                <mxCell id="44" value="" style="shape=image;verticalLabelPosition=bottom;labelBackgroundColor=none;verticalAlign=top;aspect=fixed;imageAspect=0;image=data:image/svg+xml,PHN2ZyB4bWxucz0iaHR0cDovL3d3dy53My5vcmcvMjAwMC9zdmciIGZpbGw9Im5vbmUiIHZpZXdCb3g9IjAgMCAyNCAyNCIgaGVpZ2h0PSI4MDBweCIgd2lkdGg9IjgwMHB4Ij4KPHBhdGggc3Ryb2tlLWxpbmVqb2luPSJyb3VuZCIgc3Ryb2tlLWxpbmVjYXA9InJvdW5kIiBzdHJva2Utd2lkdGg9IjIiIHN0cm9rZT0iIzAwMDAwMCIgZD0iTTEyIDE0VjExTTEyIDZDNy44NTc4NiA2IDQuNSA5LjM1Nzg2IDQuNSAxMy41QzQuNSAxNy42NDIxIDcuODU3ODYgMjEgMTIgMjFDMTYuMTQyMSAyMSAxOS41IDE3LjY0MjEgMTkuNSAxMy41QzE5LjUgMTEuNTU2MSAxOC43NjA1IDkuNzg0OTQgMTcuNTQ3NCA4LjQ1MjVNMTIgNkMxNC4xOTgyIDYgMTYuMTc1NiA2Ljk0NTcyIDE3LjU0NzQgOC40NTI1TTEyIDZWM00xOS41IDYuNUwxNy41NDc0IDguNDUyNU0xMiAzSDlNMTIgM0gxNSIvPgo8L3N2Zz4=;imageBackground=none;fontColor=none;noLabel=1;imageBorder=none;" vertex="1" parent="46">
                    <mxGeometry x="5.236363636363636" y="2" width="22.69090909090909" height="22.69090909090909" as="geometry"/>
                </mxCell>
                <mxCell id="51" style="edgeStyle=none;html=1;entryX=0.5;entryY=0;entryDx=0;entryDy=0;" edge="1" parent="1" source="47" target="50">
                    <mxGeometry relative="1" as="geometry"/>
                </mxCell>
                <mxCell id="47" value="Aufrufen Seiten" style="rounded=1;whiteSpace=wrap;html=1;fontSize=19;strokeColor=#333333;" vertex="1" parent="1">
                    <mxGeometry x="69.5" y="180" width="140" height="30" as="geometry"/>
                </mxCell>
                <mxCell id="52" style="edgeStyle=none;html=1;entryX=0.348;entryY=0.007;entryDx=0;entryDy=0;entryPerimeter=0;exitX=0.307;exitY=1.326;exitDx=0;exitDy=0;exitPerimeter=0;" edge="1" parent="1" source="50" target="43">
                    <mxGeometry relative="1" as="geometry"/>
                </mxCell>
                <mxCell id="57" style="edgeStyle=orthogonalEdgeStyle;html=1;entryX=0.5;entryY=0;entryDx=0;entryDy=0;rounded=0;" edge="1" parent="1" source="50" target="53">
                    <mxGeometry relative="1" as="geometry">
                        <Array as="points">
                            <mxPoint x="160" y="260"/>
                            <mxPoint x="360" y="260"/>
                        </Array>
                    </mxGeometry>
                </mxCell>
                <mxCell id="50" value="" style="rounded=0;whiteSpace=wrap;html=1;strokeColor=#333333;fontColor=#333333;fillColor=#E6E6E6;" vertex="1" parent="1">
                    <mxGeometry x="79.5" y="240" width="120" height="1" as="geometry"/>
                </mxCell>
                <mxCell id="55" style="edgeStyle=none;html=1;" edge="1" parent="1" source="53" target="54">
                    <mxGeometry relative="1" as="geometry"/>
                </mxCell>
                <mxCell id="53" value="Laden Seite" style="rounded=1;whiteSpace=wrap;html=1;fontSize=19;strokeColor=#333333;" vertex="1" parent="1">
                    <mxGeometry x="290" y="291" width="140" height="30" as="geometry"/>
                </mxCell>
                <mxCell id="56" style="edgeStyle=none;html=1;entryX=0.5;entryY=0;entryDx=0;entryDy=0;" edge="1" parent="1" source="54" target="40">
                    <mxGeometry relative="1" as="geometry"/>
                </mxCell>
                <mxCell id="54" value="Mutieren DOM" style="rounded=1;whiteSpace=wrap;html=1;fontSize=19;strokeColor=#333333;" vertex="1" parent="1">
                    <mxGeometry x="290" y="342" width="140" height="30" as="geometry"/>
                </mxCell>
                <mxCell id="62" style="edgeStyle=orthogonalEdgeStyle;rounded=0;html=1;entryX=0.5;entryY=0;entryDx=0;entryDy=0;" edge="1" parent="1" target="90">
                    <mxGeometry relative="1" as="geometry">
                        <mxPoint x="138" y="500" as="sourcePoint"/>
                        <mxPoint x="138.5" y="530" as="targetPoint"/>
                    </mxGeometry>
                </mxCell>
                <mxCell id="58" value="Auswerten loadTimes" style="rounded=1;whiteSpace=wrap;html=1;fontSize=19;strokeColor=#333333;" vertex="1" parent="1">
                    <mxGeometry x="37" y="470" width="203" height="30" as="geometry"/>
                </mxCell>
                <mxCell id="59" style="edgeStyle=orthogonalEdgeStyle;rounded=0;html=1;entryX=0.5;entryY=0;entryDx=0;entryDy=0;" edge="1" parent="1" source="43" target="58">
                    <mxGeometry relative="1" as="geometry"/>
                </mxCell>
                <mxCell id="89" value="" style="group" vertex="1" connectable="0" parent="1">
                    <mxGeometry x="123" y="531" width="30" height="30" as="geometry"/>
                </mxCell>
                <mxCell id="90" value="" style="ellipse;whiteSpace=wrap;html=1;aspect=fixed;strokeColor=default;fillColor=#000000;perimeterSpacing=0;strokeWidth=1;" vertex="1" parent="89">
                    <mxGeometry width="30" height="30" as="geometry"/>
                </mxCell>
                <mxCell id="91" value="" style="ellipse;whiteSpace=wrap;html=1;aspect=fixed;strokeColor=default;fillColor=#000000;perimeterSpacing=0;strokeWidth=1;" vertex="1" parent="89">
                    <mxGeometry x="3" y="3" width="24" height="24" as="geometry"/>
                </mxCell>
            </root>
        </mxGraphModel>
    </diagram>
</mxfile>